<svg width="18" height="18" viewBox="0 0 18 18" fill="none" xmlns="http://www.w3.org/2000/svg">
<path d="M5.18314 6.75H12.8169C12.952 6.75003 13.0841 6.79012 13.1964 6.8652C13.3087 6.94028 13.3963 7.04699 13.448 7.17182C13.4997 7.29666 13.5132 7.43402 13.4869 7.56655C13.4605 7.69908 13.3955 7.82081 13.2999 7.91637L9.48309 11.7332C9.35495 11.8613 9.18118 11.9333 9 11.9333C8.81882 11.9333 8.64505 11.8613 8.51691 11.7332L4.70006 7.91637C4.60453 7.82081 4.53947 7.69908 4.51312 7.56655C4.48677 7.43402 4.5003 7.29666 4.552 7.17182C4.60371 7.04699 4.69127 6.94028 4.80361 6.8652C4.91594 6.79012 5.04802 6.75003 5.18314 6.75Z" fill="white"/>
</svg>
