<svg width="30" height="30" viewBox="0 0 30 30" fill="none" xmlns="http://www.w3.org/2000/svg">
<path d="M25.9871 24.6625L20.3957 19.0712C21.9194 17.2076 22.6686 14.8297 22.4882 12.4293C22.3079 10.0289 21.2118 7.78969 19.4267 6.17475C17.6417 4.55982 15.3042 3.69277 12.8978 3.75293C10.4914 3.8131 8.20014 4.79589 6.49801 6.49801C4.79589 8.20014 3.8131 10.4914 3.75293 12.8978C3.69277 15.3042 4.55982 17.6417 6.17475 19.4267C7.78969 21.2118 10.0289 22.3079 12.4293 22.4882C14.8297 22.6686 17.2076 21.9194 19.0712 20.3957L24.6625 25.9871C24.8392 26.1577 25.0758 26.2521 25.3214 26.25C25.567 26.2478 25.802 26.1493 25.9756 25.9756C26.1493 25.802 26.2478 25.567 26.25 25.3214C26.2521 25.0758 26.1577 24.8392 25.9871 24.6625ZM13.1473 20.6411C11.6651 20.6411 10.2163 20.2016 8.98393 19.3782C7.75157 18.5548 6.79107 17.3844 6.22388 16.0151C5.65669 14.6457 5.50828 13.139 5.79744 11.6853C6.08659 10.2316 6.80031 8.89637 7.84834 7.84834C8.89637 6.80031 10.2316 6.08659 11.6853 5.79744C13.139 5.50828 14.6457 5.65669 16.0151 6.22388C17.3844 6.79107 18.5548 7.75157 19.3782 8.98393C20.2016 10.2163 20.6411 11.6651 20.6411 13.1473C20.6389 15.1341 19.8487 17.0389 18.4438 18.4438C17.0389 19.8487 15.1341 20.6389 13.1473 20.6411Z" fill="white"/>
</svg>
