<svg width="30" height="30" viewBox="0 0 30 30" fill="none" xmlns="http://www.w3.org/2000/svg">
<path opacity="0.1" d="M20.1542 5C19.0989 5.01641 18.0667 5.31099 17.1617 5.85397C16.2567 6.39696 15.5111 7.16913 15 8.09251C14.4889 7.16913 13.7433 6.39696 12.8383 5.85397C11.9333 5.31099 10.9011 5.01641 9.84583 5C8.16364 5.07309 6.57875 5.80898 5.4374 7.04689C4.29606 8.28481 3.69105 9.92414 3.75454 11.6067C3.75454 17.9557 14.0216 25.2887 14.4583 25.5998L15 25.9831L15.5417 25.5998C15.9784 25.2906 26.2455 17.9557 26.2455 11.6067C26.309 9.92414 25.7039 8.28481 24.5626 7.04689C23.4213 5.80898 21.8364 5.07309 20.1542 5Z" fill="white"/>
<path d="M20.1542 5C19.0989 5.01641 18.0667 5.31099 17.1617 5.85397C16.2567 6.39696 15.5111 7.16913 15 8.09251C14.4889 7.16913 13.7433 6.39696 12.8383 5.85397C11.9333 5.31099 10.9011 5.01641 9.84583 5C8.16364 5.07309 6.57875 5.80897 5.4374 7.04689C4.29606 8.28481 3.69105 9.92414 3.75454 11.6067C3.75454 17.9557 14.0216 25.2887 14.4583 25.5998L15 25.9831L15.5417 25.5998C15.9784 25.2906 26.2455 17.9557 26.2455 11.6067C26.309 9.92414 25.7039 8.28481 24.5626 7.04689C23.4213 5.80897 21.8364 5.07309 20.1542 5V5ZM15 23.6759C11.9515 21.3987 5.62878 15.8041 5.62878 11.6067C5.56472 10.421 5.97211 9.25803 6.7621 8.37149C7.55209 7.48494 8.66059 6.94673 9.84583 6.87425C11.0311 6.94673 12.1396 7.48494 12.9296 8.37149C13.7195 9.25803 14.1269 10.421 14.0629 11.6067H15.9371C15.8731 10.421 16.2805 9.25803 17.0704 8.37149C17.8604 7.48494 18.9689 6.94673 20.1542 6.87425C21.3394 6.94673 22.4479 7.48494 23.2379 8.37149C24.0279 9.25803 24.4353 10.421 24.3712 11.6067C24.3712 15.806 18.0485 21.3987 15 23.6759Z" fill="white"/>
</svg>
