<svg width="100" height="37" viewBox="0 0 100 37" fill="none" xmlns="http://www.w3.org/2000/svg">
<path d="M1.58043 37C1.17111 37 0.778555 36.8376 0.489126 36.5485C0.199696 36.2594 0.0371057 35.8672 0.0371057 35.4584V34.7996C0.0371057 34.3907 0.199696 33.9986 0.489126 33.7095C0.778555 33.4204 1.17111 33.258 1.58043 33.258H98.4496C98.859 33.258 99.2515 33.4204 99.5409 33.7095C99.8304 33.9986 99.993 34.3907 99.993 34.7996V35.4584C99.993 35.8672 99.8304 36.2594 99.5409 36.5485C99.2515 36.8376 98.859 37 98.4496 37H1.58043ZM78.1807 28.7888C77.5956 28.3967 77.1245 27.8571 76.8151 27.2248C76.5057 26.5924 76.369 25.8897 76.4187 25.1876L76.4393 25.1275H79.7318C79.6986 25.4608 79.7426 25.7973 79.8606 26.1109C79.9785 26.4245 80.1671 26.7067 80.4118 26.9358C81.0193 27.3417 81.7454 27.5327 82.4742 27.4784C83.0296 27.5204 83.5826 27.3715 84.0417 27.0565C84.2076 26.9249 84.3405 26.7565 84.4298 26.5646C84.5191 26.3728 84.5624 26.1627 84.5562 25.9512C84.569 25.7261 84.5295 25.5011 84.4409 25.2938C84.3523 25.0865 84.2169 24.9024 84.0453 24.7559C83.4854 24.3636 82.8672 24.0617 82.2134 23.8613C80.7566 23.4605 79.3739 22.828 78.1184 21.9882C77.677 21.6522 77.3247 21.2131 77.0926 20.7096C76.8604 20.206 76.7553 19.6533 76.7865 19.0997C76.7788 18.5106 76.9203 17.9291 77.1979 17.4093C77.4754 16.8895 77.88 16.4482 78.3741 16.1264C79.563 15.3311 80.9741 14.9336 82.4038 14.9913C83.8329 14.9303 85.2381 15.372 86.3747 16.2395C86.8664 16.6153 87.2595 17.1045 87.5203 17.6653C87.7811 18.2261 87.9019 18.8418 87.8723 19.4594L87.8517 19.5201H84.5675C84.5768 19.2546 84.5289 18.9903 84.427 18.7449C84.3251 18.4996 84.1716 18.279 83.9769 18.0982C83.524 17.7123 82.9394 17.5162 82.3451 17.5509C81.7753 17.5177 81.211 17.6768 80.7426 18.0026C80.5635 18.1285 80.4173 18.2954 80.3162 18.4895C80.2152 18.6835 80.1622 18.899 80.1618 19.1177C80.1605 19.3253 80.214 19.5296 80.3169 19.7101C80.4197 19.8905 80.5683 20.0407 80.7478 20.1455C81.445 20.5429 82.1813 20.8679 82.9449 21.1151C84.3039 21.4615 85.5769 22.0839 86.6844 22.9435C87.1045 23.3149 87.4356 23.776 87.6532 24.2925C87.8707 24.8091 87.9691 25.3679 87.9412 25.9276C87.9633 26.5155 87.838 27.0997 87.5764 27.6269C87.3149 28.1541 86.9255 28.6076 86.4437 28.9461C85.2709 29.7236 83.8796 30.1056 82.4737 30.036C80.9476 30.0749 79.447 29.6391 78.1796 28.7888H78.1807ZM1.76047 28.2868C1.18811 27.6981 0.740591 27.0001 0.444727 26.2345C0.148864 25.469 0.0107194 24.6516 0.0386128 23.8315V21.1989C0.0114557 20.38 0.149532 19.564 0.444539 18.7995C0.739546 18.035 1.18546 17.3376 1.75582 16.7487C2.97058 15.6187 4.56894 14.9903 6.22892 14.9903C7.88891 14.9903 9.48721 15.6187 10.702 16.7487C11.2735 17.3369 11.7206 18.0341 12.0164 18.7987C12.3122 19.5633 12.4508 20.3796 12.4238 21.1989V23.8315C12.4521 24.6504 12.3155 25.4666 12.0224 26.2319C11.7292 26.9972 11.2853 27.6959 10.7169 28.2868C10.1361 28.8724 9.4394 29.3308 8.67139 29.6327C7.90338 29.9346 7.08084 30.0733 6.25618 30.0401C5.42597 30.0737 4.59782 29.9352 3.82382 29.6333C3.04983 29.3315 2.34673 28.8728 1.7589 28.2862L1.76047 28.2868ZM4.13819 18.6023C3.627 19.3619 3.37284 20.265 3.41287 21.1794V23.8315C3.37249 24.752 3.63044 25.661 4.14849 26.4235C4.38874 26.7529 4.70742 27.0172 5.0757 27.1926C5.44398 27.3681 5.85022 27.449 6.25769 27.4281C6.65817 27.446 7.05679 27.3634 7.41712 27.1879C7.77746 27.0124 8.08805 26.7496 8.3206 26.4235C8.83549 25.6598 9.09156 24.7513 9.05113 23.8315V21.1789C9.08933 20.2656 8.83129 19.3645 8.31545 18.6095C8.06519 18.2967 7.74779 18.0441 7.38667 17.8704C7.02554 17.6966 6.62995 17.6062 6.22911 17.6057C5.82828 17.6052 5.43248 17.6947 5.07093 17.8675C4.70937 18.0404 4.39129 18.2922 4.14026 18.6043L4.13819 18.6023ZM90.5931 29.8289V15.201H99.9935V17.813H93.9874V20.9574H99.9935V23.5689H93.9874V27.2174H99.9734V29.8294L90.5931 29.8289ZM71.6617 29.8289L70.8309 26.9856H66.2353L65.4123 29.8289H62.0077L66.7138 15.202H70.3483L75.0642 29.8289H71.6617ZM66.986 24.3736H70.0798L68.5581 19.1393H68.4979L66.986 24.3736ZM56.3267 29.8289L53.0626 23.962H51.5007V29.8289H48.1054V15.201H51.5007V20.9276H52.6516L55.856 15.201H60.0611L55.5453 21.8217L60.451 29.8289H56.3267ZM42.5865 29.8289L41.7557 26.9856H37.1602L36.3371 29.8289H32.933L37.6386 15.202H41.2737L45.9895 29.8289H42.5865ZM37.9108 24.3736H41.0046L39.4829 19.1393H39.4232L37.9108 24.3736ZM27.3488 29.8289V26.202L27.6693 19.5216L27.6096 19.5118L24.095 29.8294H21.8124L18.3373 19.6033L18.2777 19.6136L18.5981 26.204V29.8309H15.2028V15.201H19.6486L22.9133 25.4378H22.9729L26.2767 15.201H30.7426V29.8289H27.3488ZM0.00985135 11.0725L5.48626e-05 10.4594C-0.00162168 10.3618 0.0351844 10.2673 0.102541 10.1965C0.169898 10.1257 0.262389 10.0841 0.360138 10.0807L99.5218 7.34434C99.5712 7.34312 99.6204 7.35171 99.6664 7.36962C99.7125 7.38754 99.7545 7.41442 99.7901 7.4487C99.8256 7.48298 99.854 7.52398 99.8735 7.56932C99.8931 7.61466 99.9035 7.66343 99.904 7.71279L99.9503 11.0067C99.951 11.0561 99.9419 11.1051 99.9236 11.151C99.9052 11.1968 99.8779 11.2386 99.8433 11.2738C99.8086 11.3091 99.7673 11.3371 99.7217 11.3562C99.6762 11.3754 99.6273 11.3853 99.5778 11.3854L0.379229 11.4409C0.281425 11.4404 0.187732 11.4015 0.118429 11.3325C0.0491261 11.2636 0.00972794 11.1702 0.00878378 11.0725H0.00985135ZM0.0561335 8.76366L0.0165079 8.15113C0.0101171 8.05316 0.0425659 7.95662 0.106874 7.88238C0.171183 7.80814 0.262165 7.76218 0.360138 7.75442L99.3865 0.00108737C99.4358 -0.00268516 99.4854 0.00338126 99.5324 0.0189339C99.5794 0.0344866 99.6229 0.0592152 99.6602 0.091682C99.6975 0.124149 99.728 0.163706 99.7499 0.208054C99.7718 0.252401 99.7847 0.300654 99.7877 0.350008L99.9992 3.64137C100.002 3.69074 99.9959 3.74026 99.9798 3.78707C99.9638 3.83388 99.9386 3.87704 99.9057 3.91404C99.8728 3.95104 99.8329 3.98115 99.7883 4.00262C99.7437 4.02409 99.6952 4.03649 99.6458 4.03911L0.446046 9.11156H0.426516C0.331998 9.11137 0.24107 9.07535 0.172121 9.01077C0.103173 8.94619 0.0613863 8.85787 0.0551287 8.76366H0.0561335Z" fill="#494949"/>
</svg>
