<svg width="100" height="37" viewBox="0 0 100 37" fill="none" xmlns="http://www.w3.org/2000/svg">
<path d="M1.58043 36.9863C1.17111 36.9863 0.778555 36.8239 0.489126 36.5349C0.199696 36.2459 0.0371057 35.854 0.0371057 35.4453V34.7867C0.0371057 34.378 0.199696 33.986 0.489126 33.697C0.778555 33.408 1.17111 33.2457 1.58043 33.2457H98.4496C98.859 33.2457 99.2515 33.408 99.5409 33.697C99.8304 33.986 99.993 34.378 99.993 34.7867V35.4453C99.993 35.854 99.8304 36.2459 99.5409 36.5349C99.2515 36.8239 98.859 36.9863 98.4496 36.9863H1.58043ZM78.1807 28.7782C77.5956 28.3861 77.1245 27.8468 76.8151 27.2147C76.5057 26.5826 76.369 25.8801 76.4187 25.1783L76.4393 25.1182H79.7318C79.6986 25.4514 79.7426 25.7877 79.8606 26.1012C79.9785 26.4147 80.1671 26.6968 80.4118 26.9258C81.0193 27.3316 81.7454 27.5225 82.4742 27.4683C83.0296 27.5102 83.5826 27.3614 84.0417 27.0465C84.2076 26.915 84.3405 26.7466 84.4298 26.5548C84.5191 26.363 84.5624 26.153 84.5562 25.9416C84.569 25.7166 84.5295 25.4917 84.4409 25.2844C84.3523 25.0772 84.2169 24.8932 84.0453 24.7468C83.4854 24.3546 82.8672 24.0528 82.2134 23.8524C80.7566 23.4518 79.3739 22.8196 78.1184 21.9801C77.677 21.6441 77.3247 21.2053 77.0926 20.7019C76.8604 20.1985 76.7553 19.646 76.7865 19.0927C76.7788 18.5038 76.9203 17.9225 77.1979 17.4029C77.4754 16.8832 77.88 16.4421 78.3741 16.1205C79.563 15.3254 80.9741 14.9281 82.4038 14.9857C83.8329 14.9248 85.2381 15.3663 86.3747 16.2335C86.8664 16.6091 87.2595 17.0982 87.5203 17.6588C87.7811 18.2194 87.9019 18.8348 87.8723 19.4522L87.8517 19.5128H84.5675C84.5768 19.2475 84.5289 18.9832 84.427 18.738C84.3251 18.4928 84.1716 18.2723 83.9769 18.0915C83.524 17.7057 82.9394 17.5097 82.3451 17.5444C81.7753 17.5112 81.211 17.6703 80.7426 17.9959C80.5635 18.1218 80.4173 18.2887 80.3162 18.4826C80.2152 18.6766 80.1622 18.892 80.1618 19.1106C80.1605 19.3182 80.214 19.5224 80.3169 19.7028C80.4197 19.8831 80.5683 20.0332 80.7478 20.138C81.445 20.5353 82.1813 20.8601 82.9449 21.1073C84.3039 21.4536 85.5769 22.0757 86.6844 22.935C87.1045 23.3063 87.4356 23.7672 87.6532 24.2835C87.8707 24.7999 87.9691 25.3585 87.9412 25.918C87.9633 26.5057 87.838 27.0897 87.5764 27.6167C87.3149 28.1437 86.9255 28.597 86.4437 28.9353C85.2709 29.7126 83.8796 30.0944 82.4737 30.0249C80.9476 30.0638 79.447 29.6281 78.1796 28.7782H78.1807ZM1.76047 28.2763C1.18811 27.6878 0.740591 26.9901 0.444727 26.2248C0.148864 25.4595 0.0107194 24.6425 0.0386128 23.8226V21.191C0.0114557 20.3725 0.149532 19.5568 0.444539 18.7926C0.739546 18.0283 1.18546 17.3312 1.75582 16.7425C2.97058 15.6129 4.56894 14.9848 6.22892 14.9848C7.88891 14.9848 9.48721 15.6129 10.702 16.7425C11.2735 17.3305 11.7206 18.0275 12.0164 18.7918C12.3122 19.5561 12.4508 20.3721 12.4238 21.191V23.8226C12.4521 24.6413 12.3155 25.4572 12.0224 26.2222C11.7292 26.9872 11.2853 27.6857 10.7169 28.2763C10.1361 28.8618 9.4394 29.32 8.67139 29.6217C7.90338 29.9235 7.08084 30.0622 6.25618 30.029C5.42597 30.0625 4.59782 29.9241 3.82382 29.6223C3.04983 29.3206 2.34673 28.8621 1.7589 28.2758L1.76047 28.2763ZM4.13819 18.5954C3.627 19.3547 3.37284 20.2575 3.41287 21.1715V23.8226C3.37249 24.7429 3.63044 25.6515 4.14849 26.4137C4.38874 26.743 4.70742 27.0072 5.0757 27.1826C5.44398 27.3579 5.85022 27.4388 6.25769 27.4179C6.65817 27.4358 7.05679 27.3533 7.41712 27.1779C7.77746 27.0024 8.08805 26.7397 8.3206 26.4137C8.83549 25.6503 9.09156 24.7421 9.05113 23.8226V21.171C9.08933 20.2581 8.83129 19.3573 8.31545 18.6026C8.06519 18.2899 7.74779 18.0374 7.38667 17.8638C7.02554 17.6901 6.62995 17.5996 6.22911 17.5991C5.82828 17.5987 5.43248 17.6881 5.07093 17.8609C4.70937 18.0337 4.39129 18.2854 4.14026 18.5975L4.13819 18.5954ZM90.5931 29.8178V15.1953H99.9935V17.8064H93.9874V20.9496H99.9935V23.5602H93.9874V27.2073H99.9734V29.8184L90.5931 29.8178ZM71.6617 29.8178L70.8309 26.9756H66.2353L65.4123 29.8178H62.0077L66.7138 15.1964H70.3483L75.0642 29.8178H71.6617ZM66.986 24.3646H70.0798L68.5581 19.1322H68.4979L66.986 24.3646ZM56.3267 29.8178L53.0626 23.9531H51.5007V29.8178H48.1054V15.1953H51.5007V20.9198H52.6516L55.856 15.1953H60.0611L55.5453 21.8136L60.451 29.8178H56.3267ZM42.5865 29.8178L41.7557 26.9756H37.1602L36.3371 29.8178H32.933L37.6386 15.1964H41.2737L45.9895 29.8178H42.5865ZM37.9108 24.3646H41.0046L39.4829 19.1322H39.4232L37.9108 24.3646ZM27.3488 29.8178V26.1923L27.6693 19.5144L27.6096 19.5046L24.095 29.8184H21.8124L18.3373 19.5961L18.2777 19.6063L18.5981 26.1943V29.8199H15.2028V15.1953H19.6486L22.9133 25.4284H22.9729L26.2767 15.1953H30.7426V29.8178H27.3488ZM0.00985135 11.0684L5.48626e-05 10.4556C-0.00162168 10.3579 0.0351844 10.2635 0.102541 10.1927C0.169898 10.1219 0.262389 10.0803 0.360138 10.077L99.5218 7.34163C99.5712 7.3404 99.6204 7.34899 99.6664 7.36689C99.7125 7.3848 99.7545 7.41167 99.7901 7.44594C99.8256 7.48021 99.854 7.5212 99.8735 7.56652C99.8931 7.61184 99.9035 7.66059 99.904 7.70994L99.9503 11.0026C99.951 11.052 99.9419 11.101 99.9236 11.1469C99.9052 11.1927 99.8779 11.2344 99.8433 11.2696C99.8086 11.3049 99.7673 11.3329 99.7217 11.352C99.6762 11.3712 99.6273 11.3811 99.5778 11.3812L0.379229 11.4367C0.281425 11.4362 0.187732 11.3972 0.118429 11.3283C0.0491261 11.2594 0.00972794 11.1661 0.00878378 11.0684H0.00985135ZM0.0561335 8.76042L0.0165079 8.14811C0.0101171 8.05018 0.0425659 7.95368 0.106874 7.87946C0.171183 7.80525 0.262165 7.7593 0.360138 7.75154L99.3865 0.00108697C99.4358 -0.00268417 99.4854 0.00338001 99.5324 0.0189269C99.5794 0.0344738 99.6229 0.0591933 99.6602 0.0916481C99.6975 0.124103 99.728 0.163645 99.7499 0.207977C99.7718 0.252308 99.7847 0.300543 99.7877 0.349878L99.9992 3.64002C100.002 3.68937 99.9959 3.73888 99.9798 3.78567C99.9638 3.83246 99.9386 3.8756 99.9057 3.91259C99.8728 3.94958 99.8329 3.97968 99.7883 4.00114C99.7437 4.0226 99.6952 4.035 99.6458 4.03761L0.446046 9.10818H0.426516C0.331998 9.108 0.24107 9.07199 0.172121 9.00743C0.103173 8.94288 0.0613863 8.85459 0.0551287 8.76042H0.0561335Z" fill="white"/>
</svg>
